<svg width="434" height="100" viewBox="0 0 434 100" fill="none" xmlns="http://www.w3.org/2000/svg">
<g clip-path="url(#clip0_93_642)">
<path d="M22.7058 59.2355H34.8432C34.8432 61.3742 35.7259 63.0821 37.4913 64.355C39.2567 65.6279 41.7524 66.2663 44.9783 66.2663C46.7438 66.2663 48.2444 66.1306 49.4722 65.8673C50.6999 65.5999 51.699 65.2248 52.4694 64.742C53.2358 64.2592 53.8015 63.6607 54.1586 62.9464C54.5157 62.2321 54.6962 61.4461 54.6962 60.5802C54.6962 59.3312 54.4033 58.3257 53.8135 57.5635C53.2237 56.8014 52.3811 56.1629 51.2777 55.6522C50.1743 55.1414 48.8382 54.6866 47.2654 54.2756C45.6925 53.8685 43.903 53.3857 41.9089 52.8231C40.9339 52.5677 39.8305 52.2884 38.5867 51.9812C37.3428 51.6739 36.083 51.2948 34.803 50.8359C33.5231 50.3771 32.2753 49.8224 31.0595 49.176C29.8438 48.5256 28.7564 47.7315 27.7935 46.7898C26.8345 45.8481 26.0641 44.7269 25.4904 43.43C24.9126 42.1292 24.6277 40.6289 24.6277 38.921C24.6277 36.3234 25.049 33.9891 25.8956 31.9141C26.7422 29.8392 28.0382 28.0755 29.7956 26.623C31.549 25.1706 33.7839 24.0653 36.4962 23.2991C39.2086 22.537 42.4225 22.1539 46.1379 22.1539C49.2114 22.1539 51.9317 22.541 54.299 23.3191C56.6663 24.0972 58.6644 25.1985 60.2894 26.623C61.9144 28.0476 63.1503 29.7753 63.9969 31.7984C64.8435 33.8215 65.2648 36.0839 65.2648 38.5779H53.0512C53.0512 37.8157 52.9107 37.0695 52.6299 36.3433C52.349 35.6171 51.8916 34.9826 51.2657 34.432C50.6398 33.8853 49.8132 33.4464 48.7901 33.1152C47.7669 32.784 46.5111 32.6204 45.0265 32.6204C43.3895 32.6204 42.0373 32.7601 40.974 33.0394C39.9107 33.3187 39.0722 33.7018 38.4583 34.1846C37.8444 34.6674 37.4151 35.2101 37.1703 35.8086C36.9256 36.4072 36.8052 37.0376 36.8052 37.7C36.8052 38.5898 37.0941 39.3599 37.6678 40.0104C38.2456 40.6608 39.032 41.2194 40.0311 41.6903C41.0302 42.1611 42.2058 42.5641 43.566 42.8953C44.9222 43.2265 46.3947 43.5338 47.9836 43.8131C50.724 44.4515 53.2518 45.1698 55.5669 45.9718C57.882 46.7739 59.8922 47.7994 61.5975 49.0443C63.2987 50.2933 64.6308 51.8455 65.5898 53.7049C66.5487 55.5644 67.0302 57.8668 67.0302 60.6201C67.0302 63.3734 66.4725 65.552 65.3611 67.5512C64.2456 69.5503 62.6969 71.2262 60.7148 72.5749C58.7287 73.9236 56.3734 74.9491 53.649 75.6474C50.9206 76.3457 47.9595 76.6968 44.7577 76.6968C40.7654 76.6968 37.3709 76.1821 34.5783 75.1486C31.7857 74.1191 29.5148 72.7744 27.7614 71.1185C26.008 69.4625 24.728 67.599 23.9216 65.5241C23.1151 63.4492 22.7098 61.3543 22.7098 59.2394L22.7058 59.2355Z" fill="#2C9BC8"/>
<path d="M74.9786 34.5996L78.5897 24.8593L87.1159 24.7835V35.7847H98.6755V45.908H87.1159V59.8101C87.1159 61.0311 87.2644 62.0446 87.5573 62.8466C87.8502 63.6487 88.2474 64.2871 88.7489 64.758C89.2465 65.2288 89.8443 65.552 90.5344 65.7316C91.2245 65.9112 91.9668 65.999 92.7613 65.999H99.4057L99.3295 75.6634H91.6097C89.3829 75.6634 87.2764 75.4639 85.2903 75.0728C83.3042 74.6778 81.5708 73.9156 80.0863 72.7824C78.6017 71.6492 77.4301 70.0571 76.5715 68.0101C75.7128 65.9591 75.2835 63.2696 75.2835 59.9338V45.916H68.948V36.902L74.9786 34.6115V34.5996Z" fill="#2C9BC8"/>
<path d="M124.407 66.4937C125.715 66.4937 126.89 66.3301 127.942 65.999C128.993 65.6678 129.879 65.1131 130.61 64.339C131.34 63.5649 131.898 62.5394 132.279 61.2625C132.664 59.9896 132.857 58.3975 132.857 56.4902V35.7887H144.761V56.8732C144.761 60.4884 144.248 63.5529 143.225 66.0588C142.201 68.5687 140.781 70.6037 138.963 72.1679C137.146 73.7321 134.995 74.8733 132.512 75.5876C130.028 76.3018 127.328 76.6569 124.407 76.6569C121.486 76.6569 118.785 76.3018 116.302 75.5876C113.818 74.8733 111.667 73.7361 109.85 72.1679C108.032 70.6037 106.612 68.5647 105.589 66.0588C104.566 63.5529 104.052 60.4884 104.052 56.8732V35.7887H115.957V56.4902C115.957 58.3736 116.149 59.9617 116.534 61.2466C116.92 62.5314 117.473 63.5649 118.204 64.339C118.934 65.1131 119.825 65.6678 120.872 65.999C121.923 66.3301 123.099 66.4937 124.407 66.4937Z" fill="#2C9BC8"/>
<path d="M149.677 55.6083C149.677 52.7074 150.162 49.9741 151.137 47.4163C152.108 44.8585 153.512 42.624 155.342 40.7127C157.172 38.8013 159.394 37.289 162.006 36.1677C164.618 35.0465 167.552 34.4878 170.802 34.4878C173.209 34.4878 175.352 34.819 177.233 35.4814C179.115 36.1438 180.784 36.9977 182.245 38.0392V21.5753H194.073V75.392H183.974L183.396 72.144C181.912 73.4408 180.13 74.5301 178.06 75.408C175.989 76.2859 173.642 76.7248 171.03 76.7248C167.776 76.7248 164.835 76.1701 162.195 75.0648C159.559 73.9555 157.312 72.4432 155.454 70.5199C153.597 68.5966 152.172 66.3581 151.173 63.7963C150.174 61.2386 149.677 58.5052 149.677 55.6043V55.6083ZM161.581 55.5724C161.581 57.2284 161.858 58.7287 162.408 60.0774C162.957 61.4261 163.712 62.5873 164.675 63.5529C165.634 64.5226 166.761 65.2647 168.053 65.7875C169.345 66.3102 170.721 66.5696 172.182 66.5696C173.642 66.5696 175.018 66.3102 176.31 65.7875C177.602 65.2647 178.73 64.5266 179.689 63.5729C180.648 62.6192 181.402 61.458 181.956 60.0974C182.506 58.7367 182.782 57.2284 182.782 55.5724C182.782 53.9164 182.506 52.46 181.956 51.1233C181.406 49.7865 180.652 48.6413 179.689 47.6876C178.73 46.734 177.602 45.9958 176.31 45.473C175.018 44.9503 173.626 44.6909 172.142 44.6909C170.657 44.6909 169.269 44.9543 167.973 45.473C166.681 45.9958 165.557 46.734 164.61 47.6876C163.664 48.6413 162.921 49.7865 162.384 51.1233C161.846 52.46 161.577 53.9444 161.577 55.5724H161.581Z" fill="#2C9BC8"/>
<path d="M229.562 34.5637L242.313 34.5238L213.525 99.996H200.697L213.818 71.6851L197.764 34.5597H210.861L219.463 55.6442L220.117 58.0903L229.566 34.5637H229.562Z" fill="#2C9BC8"/>
<path d="M290.895 55.6083C290.895 58.5092 290.393 61.2426 289.398 63.8003C288.399 66.3581 286.971 68.6006 285.117 70.5239C283.259 72.4472 281.021 73.9595 278.396 75.0688C275.772 76.1781 272.831 76.7288 269.581 76.7288C266.969 76.7288 264.614 76.2898 262.516 75.412C260.417 74.5341 258.624 73.5086 257.139 72.3395L256.601 75.396H246.502V21.5753H258.371V38.0392C259.803 36.9937 261.464 36.1438 263.346 35.4814C265.228 34.819 267.371 34.4878 269.778 34.4878C273.056 34.4878 276.001 35.0465 278.613 36.1677C281.225 37.289 283.44 38.8053 285.258 40.7127C287.075 42.624 288.471 44.8585 289.442 47.4163C290.413 49.9741 290.903 52.7074 290.903 55.6083H290.895ZM278.99 55.5724C278.99 53.9444 278.721 52.46 278.184 51.1232C277.646 49.7865 276.904 48.6413 275.957 47.6876C275.01 46.734 273.891 45.9958 272.595 45.473C271.303 44.9503 269.914 44.6909 268.43 44.6909C266.945 44.6909 265.593 44.9543 264.301 45.473C263.009 45.9958 261.882 46.734 260.923 47.6876C259.964 48.6413 259.201 49.7865 258.636 51.1232C258.07 52.46 257.789 53.9444 257.789 55.5724C257.789 57.2004 258.062 58.7367 258.616 60.0974C259.165 61.458 259.92 62.6192 260.883 63.5729C261.842 64.5266 262.961 65.2647 264.245 65.7875C265.525 66.3102 266.909 66.5696 268.394 66.5696C269.878 66.5696 271.23 66.3102 272.522 65.7875C273.814 65.2647 274.942 64.5226 275.901 63.5529C276.86 62.5873 277.614 61.4261 278.168 60.0774C278.717 58.7287 278.994 57.2244 278.994 55.5724H278.99Z" fill="#2C9BC8"/>
<path d="M295.04 55.6083C295.04 52.7074 295.577 49.9741 296.653 47.4163C297.728 44.8585 299.245 42.624 301.203 40.7126C303.161 38.8013 305.496 37.293 308.212 36.1877C310.925 35.0784 313.922 34.5277 317.2 34.5277C320.478 34.5277 323.479 35.0824 326.208 36.1877C328.936 37.297 331.279 38.8053 333.237 40.7126C335.195 42.624 336.72 44.8585 337.807 47.4163C338.895 49.9741 339.44 52.7074 339.44 55.6083C339.44 58.5092 338.895 61.2426 337.807 63.8003C336.72 66.3581 335.195 68.5926 333.237 70.504C331.279 72.4153 328.928 73.9156 326.192 75.013C323.451 76.1063 320.43 76.6569 317.128 76.6569C313.826 76.6569 310.933 76.1023 308.216 74.997C305.504 73.8877 303.173 72.3874 301.227 70.492C299.281 68.5966 297.764 66.3661 296.677 63.8083C295.589 61.2505 295.044 58.5172 295.044 55.6163L295.04 55.6083ZM306.908 55.5724C306.908 57.2004 307.177 58.6928 307.715 60.0415C308.252 61.3902 308.995 62.5514 309.942 63.517C310.889 64.4866 311.988 65.2288 313.244 65.7516C314.5 66.2743 315.844 66.5336 317.276 66.5336C318.709 66.5336 320.093 66.2743 321.349 65.7516C322.605 65.2288 323.692 64.4906 324.615 63.537C325.538 62.5833 326.268 61.4301 326.802 60.0814C327.339 58.7327 327.608 57.2284 327.608 55.5764C327.608 53.9244 327.339 52.464 326.802 51.1272C326.264 49.7905 325.526 48.6453 324.595 47.6916C323.66 46.7379 322.564 45.9998 321.309 45.477C320.053 44.9543 318.697 44.6949 317.236 44.6949C315.776 44.6949 314.46 44.9583 313.204 45.477C311.948 45.9998 310.852 46.7379 309.922 47.6916C308.987 48.6453 308.252 49.7905 307.715 51.1272C307.177 52.464 306.908 53.9484 306.908 55.5764V55.5724Z" fill="#2C9BC8"/>
<path d="M343.36 55.6083C343.36 52.7074 343.898 49.9741 344.973 47.4163C346.049 44.8585 347.565 42.624 349.523 40.7126C351.481 38.8013 353.817 37.293 356.533 36.1877C359.249 35.0824 362.242 34.5277 365.521 34.5277C368.799 34.5277 371.8 35.0824 374.528 36.1877C377.257 37.293 379.6 38.8053 381.558 40.7126C383.516 42.62 385.041 44.8585 386.128 47.4163C387.215 49.9741 387.761 52.7074 387.761 55.6083C387.761 58.5092 387.215 61.2426 386.128 63.8003C385.041 66.3581 383.516 68.5926 381.558 70.504C379.6 72.4153 377.249 73.9156 374.512 75.013C371.772 76.1063 368.75 76.6569 365.448 76.6569C362.146 76.6569 359.253 76.1023 356.537 74.997C353.821 73.8917 351.493 72.3874 349.547 70.492C347.601 68.5966 346.085 66.3661 344.997 63.8083C343.91 61.2505 343.364 58.5172 343.364 55.6163L343.36 55.6083ZM355.229 55.5724C355.229 57.2004 355.498 58.6928 356.035 60.0415C356.573 61.3902 357.315 62.5514 358.262 63.517C359.209 64.4866 360.308 65.2288 361.564 65.7516C362.82 66.2743 364.164 66.5336 365.597 66.5336C367.029 66.5336 368.413 66.2743 369.669 65.7516C370.925 65.2288 372.012 64.4906 372.935 63.537C373.858 62.5833 374.588 61.4301 375.122 60.0814C375.66 58.7327 375.929 57.2284 375.929 55.5764C375.929 53.9244 375.66 52.464 375.122 51.1272C374.584 49.7905 373.846 48.6453 372.915 47.6916C371.98 46.7379 370.885 45.9998 369.629 45.477C368.373 44.9543 367.017 44.6949 365.557 44.6949C364.096 44.6949 362.78 44.9583 361.524 45.477C360.268 45.9998 359.173 46.7379 358.242 47.6916C357.307 48.6453 356.573 49.7905 356.035 51.1272C355.498 52.464 355.229 53.9484 355.229 55.5764V55.5724Z" fill="#2C9BC8"/>
<path d="M417.685 52.1328L431.279 35.7847H417.38L404.172 51.7138V21.5753H392.303V74.3825V76.7248H404.172V64.6223L409.163 59.85L419.202 76.7248H433.333L417.685 52.1328Z" fill="#2C9BC8"/>
<path d="M0 36.6147C6.84105 25.825 13.6901 15.0393 20.5432 4.2616C31.7176 2.85304 42.8839 1.41654 54.0583 0C50.6197 5.48262 47.2213 10.9852 43.7867 16.4678C45.2071 17.4175 46.6275 18.3672 48.0318 19.3448C44.9944 18.9538 41.8929 19.1972 38.9238 19.9194C34.6546 20.9289 30.6022 23.0039 27.4765 26.0883C23.8534 29.6636 21.3216 34.3242 20.3346 39.3041C19.5883 37.5843 18.7377 35.9084 17.9593 34.2006C15.8528 34.4879 13.7463 34.7472 11.6438 35.0625C11.5154 33.2389 12.1614 31.4473 13.0401 29.8711C14.1475 27.9159 15.6883 26.232 17.3815 24.7636C19.187 23.2233 21.1892 21.8986 23.3519 20.905C24.6157 20.3264 25.9559 19.8635 27.3481 19.7478C25.8796 19.2849 24.3028 19.6281 22.8864 20.1149C20.5713 21.0247 18.4448 22.3734 16.5309 23.9496C14.8617 25.3182 13.4093 26.9463 12.2216 28.7459C11.2627 30.2502 10.5725 31.962 10.4401 33.7497C10.3157 35.7847 10.8012 37.7998 11.3951 39.7311C12.1454 42.0534 13.1043 44.3119 14.2117 46.4906C14.5809 46.4347 14.954 46.3948 15.3312 46.3669C15.8407 47.7635 16.5028 49.1002 16.9522 50.5167C17.0886 51.0435 17.209 51.642 16.9602 52.1567C16.7235 52.6436 16.242 52.9388 15.7685 53.1583C14.8015 53.5813 13.7664 53.8207 12.7392 54.0481C12.5787 54.0122 12.5907 53.8087 12.5225 53.697C11.6599 51.4385 10.7852 49.188 9.91451 46.9335C10.2515 46.8976 10.5926 46.8617 10.9336 46.8297C9.28457 43.2904 8.32562 39.3879 8.45 35.4734C5.63734 35.8725 2.82068 36.2356 0.00802469 36.6187L0 36.6147Z" fill="#072F60"/>
</g>
<defs>
<clipPath id="clip0_93_642">
<rect width="433.333" height="100" fill="white"/>
</clipPath>
</defs>
</svg>
