<svg width="34" height="34" viewBox="0 0 34 34" fill="none" xmlns="http://www.w3.org/2000/svg">
<circle cx="4.74491" cy="4.74491" r="4.74491" transform="matrix(-1 0 0 1 21.8383 12.0715)" stroke="#696969" stroke-width="2"/>
<path d="M24.211 5.64606L24.711 4.78004V4.78004L24.211 5.64606ZM24.2109 27.9861L24.7109 28.8522L24.2109 27.9861ZM9.97612 27.9861L9.47612 28.8522L9.97612 27.9861ZM9.97612 5.64606L9.47612 4.78004L9.97612 5.64606ZM12.2895 2.28444L11.302 2.1263L12.2895 2.28444ZM12.885 1.56602L12.6195 0.601895L12.885 1.56602ZM2.40822 12.9229L1.83583 13.7429L2.40822 12.9229ZM6.2 27.5628L5.9044 26.6075L6.2 27.5628ZM5.29281 27.3477L4.54695 28.0138L5.29281 27.3477ZM21.8974 31.3482L22.8849 31.5063L21.8974 31.3482ZM21.3019 32.0667L21.0365 31.1026L21.3019 32.0667ZM28.894 27.3477L29.6399 28.0138L28.894 27.3477ZM27.9868 27.5628L27.6913 28.5181L27.9868 27.5628ZM32.1507 11.9616L31.1989 12.2682L32.1507 11.9616ZM31.7786 12.923L32.351 13.7429L31.7786 12.923ZM2.03605 21.6712L1.08423 21.9779L2.03605 21.6712ZM2.40822 20.7098L2.98061 21.5298L2.40822 20.7098ZM27.9865 6.06957L28.282 7.02492L27.9865 6.06957ZM28.8936 6.28466L28.1478 6.95079L28.8936 6.28466ZM5.29321 6.28458L6.03905 6.95071L5.29321 6.28458ZM6.20032 6.06951L6.49584 5.11418L6.20032 6.06951ZM31.7786 20.7098L32.351 19.8898L31.7786 20.7098ZM32.1507 21.6712L33.1025 21.9778L32.1507 21.6712ZM21.8976 2.28451L22.885 2.12636L21.8976 2.28451ZM21.3021 1.56611L21.0366 2.53023L21.3021 1.56611ZM20.9102 2.44267C21.174 4.0893 22.1514 5.61171 23.711 6.51209L24.711 4.78004C23.6949 4.19345 23.0576 3.20392 22.885 2.12636L20.9102 2.44267ZM23.711 6.51209C25.1535 7.34496 26.8089 7.48057 28.282 7.02492L27.6911 5.11423C26.7276 5.41221 25.6513 5.32297 24.711 4.78004L23.711 6.51209ZM33.1025 11.6549C32.3747 9.39576 31.1825 7.34627 29.6395 5.61853L28.1478 6.95079C29.5086 8.47442 30.5584 10.2801 31.1989 12.2682L33.1025 11.6549ZM30.7465 16.8164C30.7465 15.5451 31.379 14.4215 32.351 13.7429L31.2062 12.103C29.7213 13.1396 28.7465 14.8641 28.7465 16.8164H30.7465ZM32.351 19.8898C31.379 19.2113 30.7465 18.0876 30.7465 16.8164H28.7465C28.7465 18.7687 29.7213 20.4932 31.2062 21.5298L32.351 19.8898ZM29.6399 28.0138C31.1828 26.2861 32.3748 24.2368 33.1025 21.9778L31.1989 21.3645C30.5584 23.3525 29.5088 25.158 28.1481 26.6816L29.6399 28.0138ZM24.7109 28.8522C25.6513 28.3092 26.7278 28.22 27.6913 28.5181L28.2824 26.6074C26.8091 26.1516 25.1536 26.2872 23.7109 27.1201L24.7109 28.8522ZM22.8849 31.5063C23.0574 30.4285 23.6947 29.4388 24.7109 28.8522L23.7109 27.1201C22.1512 28.0206 21.1736 29.5433 20.91 31.1901L22.8849 31.5063ZM17.0934 33.6328C18.6412 33.6328 20.1417 33.4234 21.5674 33.0308L21.0365 31.1026C19.7821 31.448 18.4601 31.6328 17.0934 31.6328V33.6328ZM12.6196 33.0309C14.0452 33.4234 15.5457 33.6328 17.0934 33.6328V31.6328C15.7267 31.6328 14.4048 31.448 13.1505 31.1026L12.6196 33.0309ZM9.47612 28.8522C10.4923 29.4388 11.1296 30.4286 11.3021 31.5063L13.277 31.1902C13.0134 29.5433 12.0358 28.0206 10.4761 27.1201L9.47612 28.8522ZM6.49559 28.5181C7.45912 28.22 8.53559 28.3092 9.47612 28.8522L10.4761 27.1201C9.03333 26.2871 7.37773 26.1516 5.9044 26.6075L6.49559 28.5181ZM1.08423 21.9779C1.81202 24.2369 3.00405 26.2862 4.54695 28.0138L6.03867 26.6816C4.67803 25.1581 3.62835 23.3525 2.98787 21.3646L1.08423 21.9779ZM3.44037 16.8164C3.44037 18.0877 2.80785 19.2113 1.83583 19.8899L2.98061 21.5298C4.46555 20.4933 5.44037 18.7687 5.44037 16.8164H3.44037ZM1.83583 13.7429C2.80785 14.4214 3.44037 15.5451 3.44037 16.8164H5.44037C5.44037 14.864 4.46555 13.1395 2.98061 12.1029L1.83583 13.7429ZM4.54738 5.61845C3.00427 7.34619 1.81209 9.39569 1.08423 11.6549L2.98787 12.2682C3.62841 10.28 4.67823 8.47435 6.03905 6.95071L4.54738 5.61845ZM9.47612 4.78004C8.53567 5.323 7.4593 5.41222 6.49584 5.11418L5.90479 7.02484C7.37802 7.48058 9.03346 7.345 10.4761 6.51209L9.47612 4.78004ZM11.302 2.1263C11.1295 3.20388 10.4921 4.19343 9.47612 4.78004L10.4761 6.51209C12.0356 5.61169 13.0132 4.08925 13.2769 2.44259L11.302 2.1263ZM17.0934 0C15.5456 0 14.0452 0.209363 12.6195 0.601895L13.1504 2.53014C14.4047 2.18478 15.7267 2 17.0934 2V0ZM21.5676 0.601995C20.1419 0.209398 18.6413 0 17.0934 0V2C18.4602 2 19.7822 2.18481 21.0366 2.53023L21.5676 0.601995ZM13.2769 2.44259C13.278 2.43548 13.2794 2.44189 13.2657 2.45906C13.2493 2.47955 13.211 2.51345 13.1504 2.53014L12.6195 0.601895C11.8358 0.817673 11.403 1.49605 11.302 2.1263L13.2769 2.44259ZM2.98061 12.1029C2.97333 12.0979 2.97889 12.0976 2.9872 12.1179C2.99774 12.1437 3.00956 12.2009 2.98787 12.2682L1.08423 11.6549C0.802221 12.5302 1.25357 13.3365 1.83583 13.7429L2.98061 12.1029ZM5.9044 26.6075C5.89765 26.6096 5.90283 26.6055 5.92428 26.6102C5.94985 26.6158 5.99698 26.635 6.03867 26.6816L4.54695 28.0138C5.08745 28.6191 5.88609 28.7067 6.49559 28.5181L5.9044 26.6075ZM13.1505 31.1026C13.2111 31.1193 13.2494 31.1532 13.2658 31.1737C13.2795 31.1909 13.2781 31.1973 13.277 31.1902L11.3021 31.5063C11.403 32.1366 11.8358 32.8151 12.6196 33.0309L13.1505 31.1026ZM20.91 31.1901C20.9089 31.1973 20.9074 31.1908 20.9212 31.1737C20.9376 31.1532 20.9758 31.1193 21.0365 31.1026L21.5674 33.0308C22.3511 32.815 22.784 32.1366 22.8849 31.5063L20.91 31.1901ZM28.1481 26.6816C28.1898 26.6349 28.2369 26.6157 28.2625 26.6101C28.284 26.6054 28.2892 26.6095 28.2824 26.6074L27.6913 28.5181C28.3008 28.7066 29.0994 28.619 29.6399 28.0138L28.1481 26.6816ZM31.1989 12.2682C31.1772 12.2009 31.189 12.1437 31.1996 12.1179C31.2079 12.0976 31.2134 12.0979 31.2062 12.103L32.351 13.7429C32.9332 13.3365 33.3845 12.5302 33.1025 11.6549L31.1989 12.2682ZM2.98787 21.3646C3.00956 21.4319 2.99774 21.4891 2.9872 21.5149C2.97889 21.5352 2.97333 21.5349 2.98061 21.5298L1.83583 19.8899C1.25357 20.2963 0.802222 21.1026 1.08423 21.9779L2.98787 21.3646ZM28.282 7.02492C28.2888 7.02283 28.2836 7.02693 28.2621 7.02222C28.2366 7.01661 28.1895 6.99746 28.1478 6.95079L29.6395 5.61853C29.099 5.01341 28.3005 4.92573 27.6911 5.11423L28.282 7.02492ZM6.03905 6.95071C5.99736 6.99738 5.95024 7.01653 5.92467 7.02215C5.90322 7.02686 5.89804 7.02276 5.90479 7.02484L6.49584 5.11418C5.88639 4.92564 5.08785 5.0133 4.54738 5.61845L6.03905 6.95071ZM31.2062 21.5298C31.2134 21.5349 31.2079 21.5351 31.1996 21.5148C31.189 21.489 31.1772 21.4319 31.1989 21.3645L33.1025 21.9778C33.3845 21.1025 32.9332 20.2963 32.351 19.8898L31.2062 21.5298ZM22.885 2.12636C22.7841 1.49613 22.3513 0.817782 21.5676 0.601995L21.0366 2.53023C20.976 2.51354 20.9378 2.47964 20.9214 2.45915C20.9076 2.44198 20.9091 2.43557 20.9102 2.44267L22.885 2.12636Z" fill="#696969"/>
</svg>
