<svg width="35" height="31" viewBox="0 0 35 31" fill="none" xmlns="http://www.w3.org/2000/svg">
<path d="M9.10798 14.8095C7.25937 17.5982 6.57937 20.7185 6.51728 25.0423C6.50938 25.5921 6.95783 26.0347 7.50727 26.0546C11.4772 26.1983 14.6146 27.1958 16.3819 28.6584C16.9834 29.1562 18.0948 29.1562 18.6963 28.6583C20.463 27.1958 23.5992 26.1984 27.5688 26.0546C28.1183 26.0347 28.5668 25.592 28.5588 25.0422C28.4965 20.7185 27.8189 17.5982 25.9703 14.8095M2.3782 10.6667V21.0238M2.45189 10.8854L17.0077 20.0009C17.3323 20.2043 17.7446 20.2043 18.0692 20.0009L32.625 10.8854C33.2738 10.4791 33.2441 9.5242 32.5713 9.15901L18.0155 1.2589C17.718 1.09742 17.3589 1.09743 17.0614 1.2589L2.50563 9.15901C1.83279 9.5242 1.80306 10.4791 2.45189 10.8854Z" stroke="#696969" stroke-width="2" stroke-linejoin="round"/>
<path d="M3.75641 22.4048C3.75641 23.1643 2.3782 25.1667 2.3782 25.1667C2.3782 25.1667 1 23.1643 1 22.4048C1 21.6452 1.62019 21.0238 2.3782 21.0238C3.13622 21.0238 3.75641 21.6452 3.75641 22.4048Z" stroke="#696969"/>
</svg>
