<svg width="47" height="46" viewBox="0 0 47 46" fill="none" xmlns="http://www.w3.org/2000/svg">
<mask id="mask0_25_21" style="mask-type:alpha" maskUnits="userSpaceOnUse" x="0" y="0" width="47" height="46">
<circle cx="23.7722" cy="23.125" r="22.7931" fill="#696969"/>
</mask>
<g mask="url(#mask0_25_21)">
<path d="M37.8579 48.6336V43.9775C37.8579 41.5077 37.1159 39.1391 35.7951 37.3927C34.4743 35.6463 32.6829 34.6652 30.815 34.6652H16.7292C14.8613 34.6652 13.0699 35.6463 11.7491 37.3927C10.4283 39.1391 9.68628 41.5077 9.68628 43.9775V48.6336" fill="white"/>
<path d="M23.7703 27.6213C27.66 27.6213 30.8132 24.4681 30.8132 20.5784C30.8132 16.6887 27.66 13.5355 23.7703 13.5355C19.8806 13.5355 16.7274 16.6887 16.7274 20.5784C16.7274 24.4681 19.8806 27.6213 23.7703 27.6213Z" fill="white"/>
</g>
</svg>
