<svg width="90" height="63" viewBox="0 0 90 63" fill="none" xmlns="http://www.w3.org/2000/svg">
<path d="M64.78 31.2134C70.9301 31.2134 75.8769 26.222 75.8769 20.0719C75.8769 13.9218 70.9301 8.93041 64.78 8.93041C58.6299 8.93041 53.6386 13.9218 53.6386 20.0719C53.6386 26.222 58.6299 31.2134 64.78 31.2134ZM31.3556 26.7568C38.7535 26.7568 44.6808 20.7849 44.6808 13.387C44.6808 5.98906 38.7535 0.0172348 31.3556 0.0172348C23.9577 0.0172348 17.9858 5.98906 17.9858 13.387C17.9858 20.7849 23.9577 26.7568 31.3556 26.7568ZM64.78 40.1265C56.6245 40.1265 40.2688 44.2266 40.2688 52.3821V62.4095H89.2913V52.3821C89.2913 44.2266 72.9356 40.1265 64.78 40.1265ZM31.3556 35.6699C20.9718 35.6699 0.159485 40.8842 0.159485 51.268V62.4095H31.3556V52.3821C31.3556 48.594 32.8263 41.9537 41.9177 36.9178C38.0405 36.1156 34.297 35.6699 31.3556 35.6699Z" fill="#2C9BC8"/>
</svg>
