<svg width="16" height="17" viewBox="0 0 16 17" fill="none" xmlns="http://www.w3.org/2000/svg">
<path d="M9.54655 13.4467C9.54655 13.8533 9.27986 14.3867 8.93986 14.5933L7.99988 15.2C7.12654 15.74 5.91321 15.1334 5.91321 14.0534V10.4867C5.91321 10.0133 5.64654 9.40668 5.37321 9.07335L2.81319 6.38001C2.47319 6.04001 2.20654 5.44002 2.20654 5.03335V3.48668C2.20654 2.68001 2.81322 2.07335 3.55322 2.07335H12.4465C13.1865 2.07335 13.7932 2.68001 13.7932 3.42001V4.90001C13.7932 5.44001 13.4532 6.11335 13.1199 6.44668" stroke="#4C4C4C" stroke-width="1.5" stroke-miterlimit="10" stroke-linecap="round" stroke-linejoin="round"/>
<path d="M10.7134 11.7467C11.8916 11.7467 12.8468 10.7915 12.8468 9.61334C12.8468 8.43513 11.8916 7.48 10.7134 7.48C9.53521 7.48 8.58008 8.43513 8.58008 9.61334C8.58008 10.7915 9.53521 11.7467 10.7134 11.7467Z" stroke="#4C4C4C" stroke-width="1.5" stroke-linecap="round" stroke-linejoin="round"/>
<path d="M13.2467 12.1467L12.5801 11.48" stroke="#4C4C4C" stroke-width="1.5" stroke-linecap="round" stroke-linejoin="round"/>
</svg>
