<svg width="157" height="40" viewBox="0 0 157 40" fill="none" xmlns="http://www.w3.org/2000/svg">
<path opacity="0.184" d="M19.8421 14.4713C30.6418 14.4713 39.3967 11.3746 39.3967 7.55476C39.3967 3.73489 30.6418 0.638275 19.8421 0.638275C9.04238 0.638275 0.287476 3.73489 0.287476 7.55476C0.287476 11.3746 9.04238 14.4713 19.8421 14.4713Z" fill="#B3B3B3"/>
<path opacity="0.184" d="M0.347961 24.5709C0.347961 27.7631 6.86617 31.4874 19.9026 31.4874C32.939 31.4874 39.4572 27.7631 39.4572 24.5709V18.7185C39.4572 22.9748 30.3317 25.635 19.9026 25.635C9.47346 25.635 0.347961 22.9748 0.347961 18.7185V24.5709Z" fill="#B3B3B3"/>
<path opacity="0.184" d="M0.347961 16.0583C0.347961 19.2505 6.86617 22.9748 19.9026 22.9748C32.939 22.9748 39.4572 19.2505 39.4572 16.0583V10.2059C39.4572 14.4622 30.3317 17.1224 19.9026 17.1224C9.47346 17.1224 0.347961 14.4622 0.347961 10.2059V16.0583ZM0.347961 33.0835C0.347961 36.2757 6.86617 40 19.9026 40C32.939 40 39.4572 36.2757 39.4572 33.0835V27.2311C39.4572 31.4874 30.3317 34.1476 19.9026 34.1476C9.47346 34.1476 0.347961 31.4874 0.347961 27.2311V33.0835Z" fill="#B3B3B3"/>
<path d="M19.8421 13.833C30.6418 13.833 39.3967 10.7364 39.3967 6.91649C39.3967 3.09662 30.6418 0 19.8421 0C9.04238 0 0.287476 3.09662 0.287476 6.91649C0.287476 10.7364 9.04238 13.833 19.8421 13.833Z" fill="#6C63FF"/>
<path d="M0.347961 23.9326C0.347961 27.1249 6.86617 30.8491 19.9026 30.8491C32.939 30.8491 39.4572 27.1249 39.4572 23.9326V18.0802C39.4572 22.3365 30.3317 24.9967 19.9026 24.9967C9.47346 24.9967 0.347961 22.3365 0.347961 18.0802V23.9326Z" fill="#6C63FF"/>
<path d="M0.347961 15.42C0.347961 18.6123 6.86617 22.3365 19.9026 22.3365C32.939 22.3365 39.4572 18.6123 39.4572 15.42V9.56763C39.4572 13.8239 30.3317 16.4841 19.9026 16.4841C9.47346 16.4841 0.347961 13.8239 0.347961 9.56763V15.42ZM0.347961 32.4452C0.347961 35.6375 6.86617 39.3617 19.9026 39.3617C32.939 39.3617 39.4572 35.6375 39.4572 32.4452V26.5928C39.4572 30.8491 30.3317 33.5093 19.9026 33.5093C9.47346 33.5093 0.347961 30.8491 0.347961 26.5928V32.4452Z" fill="#6C63FF"/>
<path d="M55.1584 16.8322C55.0561 15.9685 54.6413 15.2981 53.914 14.8208C53.1868 14.3435 52.2947 14.1049 51.2379 14.1049C50.4652 14.1049 49.789 14.2299 49.2095 14.4799C48.6356 14.7299 48.1868 15.0736 47.8629 15.5111C47.5447 15.9486 47.3856 16.4458 47.3856 17.0026C47.3856 17.4685 47.4964 17.8691 47.718 18.2043C47.9453 18.5339 48.2351 18.8094 48.5873 19.031C48.9396 19.2469 49.3089 19.4259 49.6953 19.568C50.0817 19.7043 50.4368 19.8151 50.7606 19.9003L52.5334 20.3776C52.9879 20.4969 53.4936 20.6617 54.0504 20.8719C54.6129 21.0822 55.1498 21.3691 55.6612 21.7327C56.1782 22.0907 56.6044 22.5509 56.9396 23.1134C57.2748 23.6759 57.4425 24.3662 57.4425 25.1844C57.4425 26.1276 57.1953 26.9799 56.701 27.7412C56.2123 28.5026 55.4964 29.1077 54.5532 29.5566C53.6157 30.0055 52.4765 30.2299 51.1356 30.2299C49.8856 30.2299 48.8032 30.0282 47.8885 29.6248C46.9794 29.2214 46.2635 28.6589 45.7407 27.9373C45.2237 27.2157 44.9311 26.3776 44.8629 25.4231H47.0447C47.1015 26.0822 47.3231 26.6276 47.7095 27.0594C48.1015 27.4856 48.5959 27.8037 49.1924 28.014C49.7947 28.2185 50.4424 28.3208 51.1356 28.3208C51.9424 28.3208 52.6669 28.1901 53.3089 27.9287C53.951 27.6617 54.4595 27.2924 54.8345 26.8208C55.2095 26.3435 55.397 25.7867 55.397 25.1503C55.397 24.5708 55.2351 24.0992 54.9112 23.7356C54.5873 23.3719 54.1612 23.0765 53.6328 22.8492C53.1044 22.6219 52.5334 22.4231 51.9197 22.2526L49.772 21.639C48.4084 21.2469 47.3288 20.6873 46.5334 19.96C45.7379 19.2327 45.3402 18.281 45.3402 17.1049C45.3402 16.1276 45.6044 15.2753 46.1328 14.5481C46.6669 13.8151 47.3828 13.2469 48.2805 12.8435C49.1839 12.4344 50.1924 12.2299 51.3061 12.2299C52.4311 12.2299 53.4311 12.4316 54.3061 12.835C55.1811 13.2327 55.8743 13.7782 56.3856 14.4714C56.9027 15.1645 57.1754 15.9515 57.2038 16.8322H55.1584ZM66.338 16.8322V18.5367H59.554V16.8322H66.338ZM61.5312 13.6958H63.5426V26.1731C63.5426 26.7412 63.625 27.1674 63.7898 27.4515C63.9602 27.7299 64.1761 27.9174 64.4375 28.014C64.7045 28.1049 64.9858 28.1503 65.2812 28.1503C65.5028 28.1503 65.6846 28.139 65.8267 28.1162C65.9687 28.0878 66.0824 28.0651 66.1676 28.0481L66.5767 29.8549C66.4403 29.906 66.25 29.9572 66.0057 30.0083C65.7613 30.0651 65.4517 30.0935 65.0767 30.0935C64.5085 30.0935 63.9517 29.9714 63.4062 29.727C62.8665 29.4827 62.4176 29.1106 62.0596 28.6106C61.7074 28.1106 61.5312 27.4799 61.5312 26.7185V13.6958ZM74.5412 30.1958C73.3594 30.1958 72.3224 29.9145 71.4304 29.352C70.544 28.7895 69.8508 28.0026 69.3508 26.9912C68.8565 25.9799 68.6094 24.7981 68.6094 23.4458C68.6094 22.0822 68.8565 20.8918 69.3508 19.8748C69.8508 18.8577 70.544 18.068 71.4304 17.5055C72.3224 16.943 73.3594 16.6617 74.5412 16.6617C75.723 16.6617 76.7571 16.943 77.6434 17.5055C78.5355 18.068 79.2287 18.8577 79.723 19.8748C80.223 20.8918 80.473 22.0822 80.473 23.4458C80.473 24.7981 80.223 25.9799 79.723 26.9912C79.2287 28.0026 78.5355 28.7895 77.6434 29.352C76.7571 29.9145 75.723 30.1958 74.5412 30.1958ZM74.5412 28.389C75.4389 28.389 76.1775 28.1589 76.7571 27.6986C77.3366 27.2384 77.7656 26.6333 78.044 25.8833C78.3224 25.1333 78.4616 24.3208 78.4616 23.4458C78.4616 22.5708 78.3224 21.7555 78.044 20.9998C77.7656 20.2441 77.3366 19.6333 76.7571 19.1674C76.1775 18.7015 75.4389 18.4685 74.5412 18.4685C73.6434 18.4685 72.9048 18.7015 72.3253 19.1674C71.7457 19.6333 71.3167 20.2441 71.0383 20.9998C70.7599 21.7555 70.6207 22.5708 70.6207 23.4458C70.6207 24.3208 70.7599 25.1333 71.0383 25.8833C71.3167 26.6333 71.7457 27.2384 72.3253 27.6986C72.9048 28.1589 73.6434 28.389 74.5412 28.389ZM83.5433 29.9231V16.8322H85.4865V18.8094H85.6228C85.8615 18.1617 86.2933 17.6361 86.9183 17.2327C87.5433 16.8293 88.2478 16.6276 89.0319 16.6276C89.1797 16.6276 89.3643 16.6305 89.5859 16.6361C89.8075 16.6418 89.9751 16.6503 90.0888 16.6617V18.7072C90.0206 18.6901 89.8643 18.6645 89.62 18.6305C89.3814 18.5907 89.1285 18.5708 88.8615 18.5708C88.2251 18.5708 87.6569 18.7043 87.1569 18.9714C86.6626 19.2327 86.2706 19.5964 85.9808 20.0623C85.6967 20.5225 85.5547 21.0481 85.5547 21.639V29.9231H83.5433ZM92.5007 29.9231H90.2848L96.6939 12.4685H98.8757L105.285 29.9231H103.069L97.853 15.2299H97.7166L92.5007 29.9231ZM93.3189 23.1049H102.251V24.9799H93.3189V23.1049ZM108.004 29.9231V12.4685H113.901C115.271 12.4685 116.39 12.7157 117.259 13.21C118.134 13.6986 118.782 14.3606 119.202 15.1958C119.623 16.031 119.833 16.9628 119.833 17.9912C119.833 19.0197 119.623 19.9543 119.202 20.7952C118.788 21.6361 118.146 22.3066 117.276 22.8066C116.407 23.3009 115.293 23.5481 113.935 23.5481H109.708V21.6731H113.867C114.805 21.6731 115.558 21.5111 116.126 21.1873C116.694 20.8634 117.106 20.4259 117.361 19.8748C117.623 19.318 117.754 18.6901 117.754 17.9912C117.754 17.2924 117.623 16.6674 117.361 16.1162C117.106 15.5651 116.691 15.1333 116.117 14.8208C115.543 14.5026 114.782 14.3435 113.833 14.3435H110.117V29.9231H108.004ZM123.238 29.9231V12.4685H129.136C130.505 12.4685 131.624 12.7157 132.494 13.21C133.369 13.6986 134.016 14.3606 134.437 15.1958C134.857 16.031 135.067 16.9628 135.067 17.9912C135.067 19.0197 134.857 19.9543 134.437 20.7952C134.022 21.6361 133.38 22.3066 132.511 22.8066C131.641 23.3009 130.528 23.5481 129.17 23.5481H124.942V21.6731H129.102C130.039 21.6731 130.792 21.5111 131.36 21.1873C131.928 20.8634 132.34 20.4259 132.596 19.8748C132.857 19.318 132.988 18.6901 132.988 17.9912C132.988 17.2924 132.857 16.6674 132.596 16.1162C132.34 15.5651 131.925 15.1333 131.352 14.8208C130.778 14.5026 130.016 14.3435 129.067 14.3435H125.352V29.9231H123.238Z" fill="#6C63FF"/>
</svg>
