<svg width="27" height="21" viewBox="0 0 27 21" fill="none" xmlns="http://www.w3.org/2000/svg">
<path fill-rule="evenodd" clip-rule="evenodd" d="M23.5816 0.0230713H2.77691C1.69333 0.0230713 0.758993 0.694725 0.369677 1.64227C0.502362 1.66834 0.631887 1.72189 0.749793 1.80443L13.1792 10.505L25.6087 1.80443C25.7266 1.72189 25.8561 1.66834 25.9888 1.64227C25.5995 0.694726 24.6652 0.0230713 23.5816 0.0230713ZM26.1822 3.84431L13.7527 12.5449C13.4084 12.786 12.9501 12.786 12.6058 12.5449L0.176331 3.84431V18.2272C0.176331 19.6575 1.34659 20.8277 2.77691 20.8277H23.5816C25.0119 20.8277 26.1822 19.6575 26.1822 18.2272V3.84431Z" fill="#CACACA"/>
</svg>
