<svg width="25" height="31" viewBox="0 0 25 31" fill="none" xmlns="http://www.w3.org/2000/svg">
<path d="M1 2.5C1 1.67157 1.67157 1 2.5 1H11C11.8284 1 12.5 1.67157 12.5 2.5V15.3125C12.5 16.1409 11.8284 16.8125 11 16.8125H1V2.5Z" stroke="#696969" stroke-width="2"/>
<path d="M12.5 3.875H22.0362C22.8535 3.875 23.3257 4.8022 22.845 5.46317L19.1055 10.6049C18.5955 11.3062 18.5955 12.2563 19.1055 12.9576L22.845 18.0993C23.3257 18.7603 22.8535 19.6875 22.0362 19.6875H13.5C12.9477 19.6875 12.5 19.2398 12.5 18.6875V3.875Z" stroke="#696969" stroke-width="2"/>
<path d="M1 29.75L1 3.875" stroke="#696969" stroke-width="2" stroke-linecap="round" stroke-linejoin="round"/>
</svg>
